# xmcd CD database file
#
# Track frame offsets:
#	150
#	20761
#	46895
#	77933
#	100799
#	111004
#	130385
#	150807
#	165865
#	180803
#	206589
#
# Disc length: 3023 seconds
#
# Revision: 0
# Processed by: cddbd v1.5.2PL0 Copyright (c) Steve Scherf et al.
# Submitted via: CDex 1.70beta2
#
DISCID=780bcd0b
DTITLE=Caro Josée - Turning Point
DYEAR=2012
DGENRE=Jazz
TTITLE0=La Terazza
TTITLE1=Paris
TTITLE2=The Lawyer's Wife
TTITLE3=Nighttime
TTITLE4=Bouillabaise
TTITLE5=Mona Lisa
TTITLE6=A Love Like This
TTITLE7=No Stars In My Sky
TTITLE8=SOS
TTITLE9=It's Impossible
TTITLE10=Merry Christmas Mi Amor
EXTD=YEAR: 2012
EXTT0=
EXTT1=
EXTT2=
EXTT3=
EXTT4=
EXTT5=
EXTT6=
EXTT7=
EXTT8=
EXTT9=
EXTT10=
PLAYORDER=
